# xmcd CD database file
#
# Track frame offsets:
#        187
#        19320
#        49617
#        73205
#        91862
#        104545
#        120455
#        133450
#        151082
#        161500
#        191967
#
# Disc length: 2798 seconds
#
# Revision: 0
# Processed by: cddbd v1.5.2PL0 Copyright (c) Steve Scherf et al.
# Submitted via: CUERipper 2.1.6
#
DISCID=980aec0b
DTITLE=Jimi Hendrix - Kiss the Sky
DYEAR=1984
DGENRE=
TTITLE0=Are You Experienced?
TTITLE1=I Don’t Live Today
TTITLE2=Voodoo Child (slight return)
TTITLE3=Stepping Stone
TTITLE4=Castles Made of Sand
TTITLE5=Killing Floor
TTITLE6=Purple Haze
TTITLE7=Red House
TTITLE8=Crosstown Traffic
TTITLE9=Third Stone From the Sun
TTITLE10=All Along the Watchtower
EXTD=
EXTT0=
EXTT1=
EXTT2=
EXTT3=
EXTT4=
EXTT5=
EXTT6=
EXTT7=
EXTT8=
EXTT9=
EXTT10=
PLAYORDER=
